<?xml version="1.0" encoding="UTF-8"?>
<svg id="Layer_1" data-name="Layer 1" xmlns="http://www.w3.org/2000/svg" viewBox="0 0 689 218">
  <defs>
    <style>
      .cls-1 {
        fill-rule: evenodd;
      }

      .cls-1, .cls-2 {
        fill: #fff;
      }

      .cls-3 {
        fill: none;
        opacity: .25;
        stroke: #fff;
        stroke-miterlimit: 400;
        stroke-width: 2px;
      }
    </style>
  </defs>
  <path class="cls-1" d="M328.59,23.24c-3.61,0-7.23,1.38-9.98,4.14-5.51,5.51-5.51,14.45,0,19.96,5.51,5.51,14.45,5.51,19.97,0,5.51-5.51,5.51-14.45,0-19.96-2.76-2.76-6.37-4.14-9.98-4.14ZM311.71,54.35c-5.34,0-9.68,2.08-11.21,3.85-2.65,3.07-2.64,6.71-2.56,7.99v52.01c0,2.61,2.06,4.68,4.67,4.68s4.68-2.12,4.68-4.68v-43.04h4.27v44.94h.04v61.21c0,4.1,3.35,7.45,7.45,7.45s7.45-3.35,7.45-7.45v-61.21h4.18v61.21c0,4.1,3.35,7.45,7.45,7.45s7.45-3.35,7.45-7.45v-61.24h.04v-44.94h4.27v43.04c0,2.61,2.06,4.67,4.67,4.67s4.68-2.1,4.68-4.67v-51.97c.13-1.29.09-4.97-2.56-7.99-1.53-1.74-5.89-3.85-11.23-3.85h-33.73Z"/>
  <path class="cls-3" d="M404.99,23.24c-3.61,0-7.23,1.38-9.98,4.14-5.51,5.51-5.51,14.45,0,19.96,5.51,5.51,14.45,5.51,19.97,0,5.51-5.51,5.51-14.45,0-19.96-2.76-2.76-6.37-4.14-9.98-4.14ZM388.1,54.35c-5.34,0-9.68,2.08-11.21,3.85-2.65,3.07-2.64,6.71-2.56,7.99v52.01c0,2.61,2.06,4.68,4.67,4.68s4.68-2.12,4.68-4.68v-43.04h4.27v44.94h.04v61.21c0,4.1,3.35,7.45,7.45,7.45s7.45-3.35,7.45-7.45v-61.21h4.18v61.21c0,4.1,3.35,7.45,7.45,7.45s7.45-3.35,7.45-7.45v-61.24h.04v-44.94h4.27v43.04c0,2.61,2.06,4.67,4.67,4.67s4.68-2.1,4.68-4.67v-51.97c.13-1.29.09-4.97-2.56-7.99-1.53-1.74-5.89-3.85-11.23-3.85h-33.73Z"/>
  <path class="cls-2" d="M75.95,109.42c0,5.36-1.03,9.84-3.08,13.44-2.05,3.58-5.02,6.28-8.91,8.09-3.88,1.81-8.55,2.72-14.02,2.72h-13.48v-47.58h14.94c4.99,0,9.32.89,12.98,2.66,3.68,1.76,6.52,4.38,8.53,7.84,2.02,3.46,3.03,7.73,3.03,12.83ZM65.46,109.68c0-3.52-.52-6.41-1.55-8.67-1.03-2.27-2.55-3.95-4.56-5.03-2-1.08-4.47-1.62-7.42-1.62h-5.38v30.98h4.33c4.93,0,8.59-1.31,10.98-3.94,2.4-2.62,3.59-6.53,3.59-11.72ZM113.21,133.67h-27.41v-47.58h27.41v8.27h-17.31v10.44h16.11v8.27h-16.11v12.28h17.31v8.33ZM123.14,133.67v-47.58h10.09v39.25h19.3v8.33h-29.39ZM188.2,133.67h-27.41v-47.58h27.41v8.27h-17.31v10.44h16.11v8.27h-16.11v12.28h17.31v8.33ZM216.48,133.67h-10.09v-39.19h-12.92v-8.39h35.94v8.39h-12.92v39.19ZM264.13,133.67h-27.41v-47.58h27.41v8.27h-17.31v10.44h16.11v8.27h-16.11v12.28h17.31v8.33Z"/>
  <path class="cls-2" d="M486.82,133.67h-10.09v-39.19h-12.92v-8.39h35.94v8.39h-12.92v39.19ZM546.07,133.67h-10.06v-20.53h-18.84v20.53h-10.09v-47.58h10.09v18.64h18.84v-18.64h10.06v47.58ZM585.47,133.67h-27.41v-47.58h27.41v8.27h-17.31v10.44h16.11v8.27h-16.11v12.28h17.31v8.33ZM615.55,133.67l-11.47-37.33h-.28c.04.89.11,2.22.2,4.02.1,1.79.2,3.7.28,5.72.08,2.01.12,3.83.12,5.47v22.12h-9.02v-47.58h13.73l11.27,36.38h.2l11.94-36.38h13.73v47.58h-9.41v-22.52c0-1.5.03-3.22.08-5.17.05-1.96.12-3.82.2-5.59.09-1.77.16-3.1.2-3.98h-.28l-12.28,37.27h-9.23Z"/>
</svg>